<?xml version="1.0" encoding="UTF-8"?>
<svg id="svg" version="1.1" xmlns="http://www.w3.org/2000/svg" style="display: block;" viewBox="0 0 111 128"><style>path{fill:#5ac56f !important;}</style><path d="M0 0 C0.64275879 -0.15952148 1.28551758 -0.31904297 1.94775391 -0.48339844 C2.95201416 -0.54575684 2.95201416 -0.54575684 3.9765625 -0.609375 C5.09889282 -0.66544922 5.09889282 -0.66544922 6.24389648 -0.72265625 C7.02966064 -0.73167969 7.8154248 -0.74070313 8.625 -0.75 C9.43461182 -0.75386719 10.24422363 -0.75773437 11.07836914 -0.76171875 C11.88137451 -0.73207031 12.68437988 -0.70242187 13.51171875 -0.671875 C14.2907959 -0.59517578 15.06987305 -0.51847656 15.87255859 -0.43945312 C16.92564209 -0.22192383 16.92564209 -0.22192383 18 0 C18.99644531 0.57234375 19.99289063 1.1446875 21.01953125 1.734375 C21.81746094 2.48203125 22.61539063 3.2296875 23.4375 4 C24.17613281 4.82242187 24.91476563 5.64484375 25.67578125 6.4921875 C26.44277344 7.31976563 27.20976563 8.14734375 28 9 C28.48645996 9.36254883 28.97291992 9.72509766 29.47412109 10.09863281 C29.99184082 10.43991211 30.50956055 10.78119141 31.04296875 11.1328125 C31.55722412 11.46498779 32.07147949 11.79716309 32.60131836 12.1394043 C33.1041333 12.46465088 33.60694824 12.78989746 34.125 13.125 C35.03765625 13.77339844 35.9503125 14.42179688 36.890625 15.08984375 C37.58671875 15.72019531 38.2828125 16.35054687 39 17 C39.39445312 17.93005859 39.39445312 17.93005859 39.796875 18.87890625 C39.82265625 19.47574219 39.8484375 20.07257812 39.875 20.6875 C39.58625 21.780625 39.2975 22.87375 39 24 C38.54625 24.928125 38.0925 25.85625 37.625 26.8125 C37.08875 27.534375 36.5525 28.25625 36 29 C35.34 29.66 34.68 30.32 34 31 C33.29280319 31.09269165 32.58560638 31.1853833 31.85697937 31.28088379 C30.9704921 31.29453979 30.08400482 31.3081958 29.1706543 31.32226562 C28.16588547 31.34148071 27.16111664 31.3606958 26.12590027 31.38049316 C25.03634537 31.38899292 23.94679047 31.39749268 22.82421875 31.40625 C21.70690872 31.41765015 20.58959869 31.42905029 19.43843079 31.4407959 C18.28376816 31.45002075 17.12910553 31.45924561 15.93945312 31.46875 C15.05173108 31.47191097 15.05173108 31.47191097 14.14607525 31.4751358 C13.54816583 31.47689568 12.9502564 31.47865555 12.33422852 31.48046875 C11.73304199 31.48264404 11.13185547 31.48481934 10.51245117 31.48706055 C9.91021729 31.49133057 9.3079834 31.49560059 8.6875 31.5 C7.78704956 31.5141394 7.78704956 31.5141394 6.8684082 31.52856445 C6.27060547 31.53976318 5.67280273 31.55096191 5.05688477 31.5625 C4.46251208 31.57369118 3.8681394 31.58488235 3.25575542 31.59641266 C2.37215454 31.61056339 2.37215454 31.61056339 1.47070312 31.625 C0.88891957 31.629338 0.30713602 31.63367599 -0.29227734 31.63814545 C-0.86615342 31.64037361 -1.44002951 31.64260178 -2.03129578 31.64489746 C-3.15147598 31.6486438 -4.27165619 31.65239014 -5.42578125 31.65625 C-6.50926346 31.6809436 -7.59274567 31.70563721 -8.70906067 31.7310791 C-9.72328598 31.7250769 -10.73751129 31.71907471 -11.7824707 31.71289062 C-13.17240738 31.62470818 -13.17240738 31.62470818 -14.59042358 31.53474426 C-15.3855838 31.35827866 -16.18074402 31.18181305 -17 31 C-17.59285797 30.59001266 -18.18571594 30.18002533 -18.79653931 29.75761414 C-19.24967499 29.24487442 -19.70281067 28.7321347 -20.16967773 28.20385742 C-20.52064011 27.66042694 -20.87160248 27.11699646 -21.23320007 26.55709839 C-21.48624405 26.04325592 -21.73928802 25.52941345 -22 25 C-22.26264648 24.31397705 -22.52529297 23.6279541 -22.79589844 22.92114258 C-22.8168457 22.31423584 -22.83779297 21.7073291 -22.859375 21.08203125 C-22.81361328 20.40479004 -22.76785156 19.72754883 -22.72070312 19.02978516 C-22.48287109 18.35995605 -22.24503906 17.69012695 -22 17 C-21.45794922 16.37270996 -20.91589844 15.74541992 -20.35742188 15.09912109 C-19.64650391 14.49277832 -18.93558594 13.88643555 -18.203125 13.26171875 C-17.4090625 12.66939453 -16.615 12.07707031 -15.796875 11.46679688 C-14.53617188 10.58604492 -14.53617188 10.58604492 -13.25 9.6875 C-12.0125 8.77774414 -12.0125 8.77774414 -10.75 7.84960938 C-9.95078125 7.26373047 -9.1515625 6.67785156 -8.328125 6.07421875 C-7.5949707 5.55432373 -6.86181641 5.03442871 -6.10644531 4.4987793 C-5.41131836 4.00418213 -4.71619141 3.50958496 -4 3 C-3.33274902 2.4541626 -2.66549805 1.9083252 -1.97802734 1.34594727 C-1.32527832 0.90178467 -0.6725293 0.45762207 0 0 Z M7 10 C6.13375 10.45375 5.2675 10.9075 4.375 11.375 C3.59125 11.91125 2.8075 12.4475 2 13 C1.67 13.66 1.34 14.32 1 15 C0.896875 15.94875 0.79375 16.8975 0.6875 17.875 C0.790625 18.90625 0.89375 19.9375 1 21 C1.53625 21.78375 2.0725 22.5675 2.625 23.375 C3.40875 23.91125 4.1925 24.4475 5 25 C5.969375 25.185625 6.93875 25.37125 7.9375 25.5625 C8.948125 25.376875 9.95875 25.19125 11 25 C11.5053125 24.69707031 12.010625 24.39414062 12.53125 24.08203125 C12.9953125 23.68371094 13.459375 23.28539062 13.9375 22.875 C14.33582031 22.41996094 14.73414063 21.96492188 15.14453125 21.49609375 C15.56798828 20.75552734 15.56798828 20.75552734 16 20 C16.04125 18.989375 16.0825 17.97875 16.125 16.9375 C15.568125 15.4834375 15.568125 15.4834375 15 14 C13.824375 12.824375 13.824375 12.824375 12.625 11.625 C11.75875 11.08875 10.8925 10.5525 10 10 C9.01 10 8.02 10 7 10 Z M-42 17 C-40.80117188 16.49726563 -40.80117188 16.49726563 -39.578125 15.984375 C-38.80984375 15.90703125 -38.0415625 15.8296875 -37.25 15.75 C-36.47011719 15.7809375 -35.69023438 15.811875 -34.88671875 15.84375 C-34.26410156 16.2253125 -33.64148437 16.606875 -33 17 C-32.75894531 18.0621875 -32.51789062 19.124375 -32.26953125 20.21875 C-32.19460449 21.18989746 -32.19460449 21.18989746 -32.11816406 22.18066406 C-32.09979492 22.86354492 -32.08142578 23.54642578 -32.0625 24.25 C-32.06604492 24.93030273 -32.06958984 25.61060547 -32.07324219 26.31152344 C-32.08129883 26.97700195 -32.08935547 27.64248047 -32.09765625 28.328125 C-32.09910645 28.96814453 -32.10055664 29.60816406 -32.10205078 30.26757812 C-32.06837402 30.83927734 -32.03469727 31.41097656 -32 32 C-31.73058594 32.79921875 -31.46117187 33.5984375 -31.18359375 34.421875 C-30.79300781 34.94265625 -30.40242188 35.4634375 -30 36 C-29.01 36.33 -28.02 36.66 -27 37 C-26.00033707 37.04634583 -25.00067413 37.09269165 -23.97071838 37.14044189 C-23.37497009 37.14615204 -22.7792218 37.15186218 -22.16542053 37.15774536 C-21.5185881 37.15886322 -20.87175568 37.15998108 -20.20532227 37.16113281 C-19.17554764 37.16858017 -19.17554764 37.16858017 -18.12496948 37.17617798 C-17.04224007 37.18314194 -17.04224007 37.18314194 -15.93763733 37.19024658 C-15.18474993 37.19261574 -14.43186253 37.19498489 -13.65616035 37.19742584 C-12.8840415 37.19930656 -12.11192265 37.20118729 -11.31640625 37.203125 C-10.15305409 37.20736607 -10.15305409 37.20736607 -8.96619987 37.21169281 C-7.78627055 37.21600185 -7.78627055 37.21600185 -6.58250427 37.22039795 C-5.38173831 37.22421038 -5.38173831 37.22421038 -4.15671444 37.22809982 C-3.34380727 37.23017063 -2.5309001 37.23224144 -1.69335938 37.234375 C-0.86695481 37.23542866 -0.04055025 37.23648232 0.81089687 37.2375679 C1.64585217 37.23844784 2.48080748 37.23932777 3.34106445 37.24023438 C4.60067993 37.24186584 4.60067993 37.24186584 5.88574219 37.24353027 C6.72782227 37.24566528 7.56990234 37.24780029 8.4375 37.25 C9.27893555 37.25471313 10.12037109 37.25942627 10.98730469 37.26428223 C11.82592041 37.26988159 12.66453613 37.27548096 13.52856445 37.28125 C14.36234084 37.28684559 15.19611723 37.29244118 16.05515957 37.29820633 C16.88064832 37.30292324 17.70613707 37.30764015 18.55664062 37.3125 C19.77596456 37.3157535 19.77596456 37.3157535 21.0199213 37.31907272 C22.2212226 37.32074385 22.2212226 37.32074385 23.4467926 37.32244873 C24.6276604 37.32300388 24.6276604 37.32300388 25.83238411 37.32357025 C26.99623288 37.32582485 26.99623288 37.32582485 28.18359375 37.328125 C28.95456327 37.33460304 29.7255328 37.34108109 30.51986504 37.34775543 C31.27187754 37.35362419 32.02389004 37.35949295 32.7986908 37.36553955 C33.52191025 37.36458282 34.2451297 37.3636261 34.99026489 37.36264038 C35.67853363 37.36059601 36.36680237 37.35855164 37.07592773 37.35644531 C37.72073593 37.3656601 38.36554413 37.37487488 39.02989197 37.3843689 C39.62846008 37.37879974 40.2270282 37.37323059 40.84373474 37.36749268 C41.88530228 37.24622009 42.92686981 37.12494751 44 37 C44.79187714 36.53463837 45.58375427 36.06927673 46.39962769 35.58981323 C46.92775055 35.06517487 47.45587341 34.5405365 48 34 C48.2623645 33.11223877 48.2623645 33.11223877 48.5300293 32.20654297 C48.54461182 31.55830566 48.55919434 30.91006836 48.57421875 30.2421875 C48.60193359 29.53449219 48.62964844 28.82679687 48.65820312 28.09765625 C48.66787109 27.36417969 48.67753906 26.63070313 48.6875 25.875 C48.70876953 25.13378906 48.73003906 24.39257812 48.75195312 23.62890625 C48.77580078 22.92378906 48.79964844 22.21867187 48.82421875 21.4921875 C48.88222656 20.33976562 48.94023438 19.18734375 49 18 C49.33 17.67 49.66 17.34 50 17 C50.55171875 16.92136719 51.1034375 16.84273437 51.671875 16.76171875 C52.35765625 16.73722656 53.0434375 16.71273438 53.75 16.6875 C54.46800781 16.69523437 55.18601562 16.70296875 55.92578125 16.7109375 C56.95251953 16.85402344 56.95251953 16.85402344 58 17 C59.4540625 17.8971875 59.4540625 17.8971875 60.9375 18.8125 C61.618125 19.534375 62.29875 20.25625 63 21 C63.495 22.485 63.495 22.485 64 24 C64.04244937 24.61804221 64.08489874 25.23608442 64.12863445 25.87285519 C64.1303103 26.58020589 64.13198614 27.28755659 64.13371277 28.01634216 C64.14011024 29.23811661 64.14011024 29.23811661 64.14663696 30.48457336 C64.14595718 31.81950081 64.14595718 31.81950081 64.14526367 33.18139648 C64.14862228 34.12150574 64.1519809 35.06161499 64.15544128 36.0302124 C64.15846252 37.01897873 64.16148376 38.00774506 64.16459656 39.026474 C64.16534369 40.06018568 64.16609081 41.09389736 64.16686058 42.15893364 C64.16722628 43.21894648 64.16759197 44.27895931 64.16796875 45.37109375 C64.17033759 46.96471583 64.17033759 46.96471583 64.17275429 48.5905323 C64.17450346 49.6674024 64.17625263 50.7442725 64.17805481 51.85377502 C64.17950406 52.9498385 64.18095331 54.04590197 64.18244648 55.17517948 C64.18398118 56.84513556 64.18398118 56.84513556 64.18554688 58.54882812 C64.1856158 59.68139007 64.18568472 60.81395201 64.18575573 61.98083401 C64.18560624 63.12548154 64.18545675 64.27012907 64.18530273 65.44946289 C64.18528259 66.60079712 64.18526245 67.75213135 64.1852417 68.93835449 C64.18635956 70.67043152 64.18635956 70.67043152 64.1875 72.4375 C64.19017883 73.59157349 64.19285767 74.74564697 64.19561768 75.93469238 C64.19898132 77.08489868 64.20234497 78.23510498 64.20581055 79.42016602 C64.2091978 80.56363463 64.21258505 81.70710325 64.21607494 82.88522243 C64.21889131 84.01686856 64.22170767 85.14851469 64.22460938 86.31445312 C64.22625453 87.98437238 64.22625453 87.98437238 64.22793293 89.68802738 C64.22831153 90.78444774 64.22869013 91.88086809 64.2290802 93.01051331 C64.22895243 94.08800905 64.22882465 95.1655048 64.22869301 96.27565193 C64.229279 97.33839773 64.229865 98.40114353 64.23046875 99.49609375 C64.23618928 101.08438901 64.23618928 101.08438901 64.24202538 102.70477104 C64.24539721 103.73760782 64.24876904 104.7704446 64.25224304 105.83457947 C64.25106476 106.82474564 64.24988647 107.8149118 64.24867249 108.83508301 C64.24582497 110.24787537 64.24582497 110.24787537 64.24291992 111.68920898 C64.24853943 112.57713638 64.25415894 113.46506378 64.25994873 114.37989807 C64.25575424 115.19723419 64.25155975 116.01457031 64.24723816 116.85667419 C64.24778293 117.56440192 64.24832769 118.27212965 64.24888897 119.00130367 C64.16675561 119.66087346 64.08462225 120.32044325 64 121 C63.71733654 121.70984228 63.43467308 122.41968456 63.14344406 123.15103722 C62.76610752 123.76119493 62.38877098 124.37135265 62 125 C60.74154015 125.85473152 60.74154015 125.85473152 59.45765686 126.72673035 C58.92328066 126.96471533 58.38890446 127.20270031 57.83833504 127.44789696 C57.23168447 127.63009096 56.62503391 127.81228497 56 128 C55.32380552 128.08804712 54.64761105 128.17609425 53.95092583 128.26680946 C53.20995218 128.30225554 52.46897854 128.33770161 51.70555115 128.3742218 C50.90518433 128.38123611 50.1048175 128.38825043 49.28019714 128.39547729 C47.99185722 128.38401169 47.99185722 128.38401169 46.67749023 128.37231445 C45.75805634 128.37596512 44.83862244 128.37961578 43.8913269 128.38337708 C42.92538101 128.3859552 41.95943512 128.38853333 40.96421814 128.39118958 C39.96122114 128.38694284 38.95822414 128.38269611 37.9248333 128.37832069 C36.89647425 128.37335768 35.8681152 128.36839466 34.80859375 128.36328125 C33.77224352 128.36302633 32.73589329 128.36277142 31.6681385 128.36250877 C30.09024953 128.36363891 30.09024953 128.36363891 28.48048401 128.36479187 C27.41045419 128.36477015 26.34042437 128.36474844 25.2379694 128.36472607 C24.15203715 128.36360475 23.06610491 128.36248343 21.94726562 128.36132812 C20.84494063 128.35759595 19.74261564 128.35386377 18.60688686 128.3500185 C16.93713094 128.34316926 16.93713094 128.34316926 15.23364258 128.33618164 C14.1140918 128.33169006 12.99454102 128.32719849 11.84106445 128.3225708 C10.71788818 128.31924744 9.59471191 128.31592407 8.4375 128.3125 C7.3136792 128.31239929 6.1898584 128.31229858 5.03198242 128.31219482 C3.91130371 128.3133429 2.790625 128.31449097 1.63598633 128.31567383 C0.5216368 128.31700223 -0.59271273 128.31833063 -1.74083042 128.31969929 C-2.84407123 128.32054618 -3.94731203 128.32139307 -5.08398438 128.32226562 C-6.16994117 128.32126704 -7.25589796 128.32026846 -8.37476254 128.31923962 C-9.44443547 128.31743348 -10.51410841 128.31562735 -11.61619568 128.31376648 C-12.66749601 128.31139166 -13.71879635 128.30901684 -14.80195427 128.30657005 C-15.83797342 128.30465975 -16.87399258 128.30274944 -17.94140625 128.30078125 C-18.97091463 128.30156488 -20.00042301 128.30234852 -21.06112862 128.3031559 C-22.06500051 128.30328367 -23.06887241 128.30341145 -24.10316467 128.30354309 C-25.06771072 128.29912201 -26.03225677 128.29470093 -27.02603149 128.29014587 C-27.94371307 128.28503494 -28.86139465 128.27992401 -29.80688477 128.2746582 C-31.09826103 128.27837433 -31.09826103 128.27837433 -32.41572571 128.28216553 C-33.21327271 128.27508072 -34.0108197 128.26799591 -34.83253479 128.26069641 C-35.56427477 128.23321634 -36.29601475 128.20573627 -37.04992867 128.17742348 C-37.69345221 128.11887373 -38.33697575 128.06032398 -39 128 C-40.4290995 127.62025276 -40.4290995 127.62025276 -41.8870697 127.23283386 C-42.5843367 126.82599869 -43.2816037 126.41916351 -44 126 C-44.58946411 125.49581039 -45.17892822 124.99162079 -45.78625488 124.47215271 C-46.38705872 123.24843712 -46.38705872 123.24843712 -47 122 C-47.08958481 121.35832445 -47.17916962 120.7166489 -47.27146912 120.05552864 C-47.31203934 119.29676367 -47.35260956 118.5379987 -47.39440918 117.75624084 C-47.40575897 116.91655258 -47.41710876 116.07686432 -47.42880249 115.21173096 C-47.42587189 114.29889343 -47.42294128 113.38605591 -47.41992188 112.44555664 C-47.42839142 111.47764694 -47.43686096 110.50973724 -47.44558716 109.51249695 C-47.45302948 108.49477203 -47.4604718 107.47704712 -47.46813965 106.42848206 C-47.468759 105.36648653 -47.46937836 104.304491 -47.47001648 103.2103138 C-47.46959854 102.12126181 -47.4691806 101.03220982 -47.46875 99.91015625 C-47.47223953 98.81680906 -47.47572906 97.72346188 -47.47932434 96.59698296 C-47.48344833 95.48824381 -47.48757233 94.37950466 -47.49182129 93.23716736 C-47.49507668 92.10882949 -47.49833206 90.98049162 -47.5016861 89.81796169 C-47.50370781 88.67211637 -47.50572952 87.52627104 -47.5078125 86.34570312 C-47.50764224 85.76515801 -47.50747198 85.18461289 -47.50729656 84.58647549 C-47.50668885 84.0020181 -47.50608114 83.41756071 -47.50545502 82.81539249 C-47.50474046 82.22800456 -47.50402591 81.64061663 -47.5032897 81.03542906 C-47.5021447 80.15079573 -47.5021447 80.15079573 -47.50097656 79.24829102 C-47.50024722 78.65695828 -47.49951787 78.06562554 -47.49876642 77.45637363 C-47.49832756 76.86376289 -47.49788869 76.27115214 -47.49743652 75.6605835 C-47.49741135 75.06707344 -47.49738617 74.47356339 -47.49736023 73.86206818 C-47.49823135 73.26821068 -47.49910248 72.67435318 -47.5 72.0625 C-47.50256302 71.46885399 -47.50512604 70.87520798 -47.50776672 70.26357269 C-47.5112059 69.67049568 -47.51464508 69.07741867 -47.51818848 68.46636963 C-47.52199414 67.87428945 -47.5257998 67.28220927 -47.52972078 66.67218727 C-47.53377035 66.0814519 -47.53781991 65.49071652 -47.54199219 64.88208008 C-47.54605056 64.29292724 -47.55010894 63.7037744 -47.55429029 63.09676844 C-47.55818533 62.5099567 -47.56208037 61.92314497 -47.56609344 61.31855106 C-47.56972617 60.73462373 -47.5733589 60.15069639 -47.57710171 59.54907429 C-47.58001752 58.96891493 -47.58293333 58.38875557 -47.5859375 57.79101562 C-47.58815559 56.64519485 -47.59037369 55.49937407 -47.592659 54.31883144 C-47.59305931 53.19013669 -47.59345963 52.06144194 -47.59387207 50.89854431 C-47.59299088 49.78917952 -47.59210968 48.67981472 -47.59120178 47.53683281 C-47.59204269 46.44315454 -47.59288361 45.34947628 -47.59375 44.22265625 C-47.6025267 43.13475359 -47.61130341 42.04685093 -47.62034607 40.92598152 C-47.62796463 39.8648609 -47.63558319 38.80374027 -47.64343262 37.71046448 C-47.63967621 36.69133972 -47.6359198 35.67221497 -47.63204956 34.62220764 C-47.62650055 33.65254562 -47.62095154 32.68288361 -47.61523438 31.68383789 C-47.62849762 30.7730246 -47.64176086 29.8622113 -47.65542603 28.92379761 C-47.64421722 28.08128952 -47.63300842 27.23878143 -47.62145996 26.3707428 C-47.5682811 25.60272402 -47.51510223 24.83470524 -47.46031189 24.04341316 C-47.30840897 23.36908682 -47.15650604 22.69476048 -47 22 C-46.64720474 21.44835112 -46.29440948 20.89670223 -45.93092346 20.32833672 C-45.49598068 19.87620371 -45.0610379 19.4240707 -44.61291504 18.95823669 C-43.31952209 17.98890953 -43.31952209 17.98890953 -42 17 Z M30 69 C28.70449219 69.70189453 28.70449219 69.70189453 27.3828125 70.41796875 C26.86106445 70.78325684 26.33931641 71.14854492 25.80175781 71.52490234 C25.20717773 72.01168457 24.61259766 72.4984668 24 73 C23.30487305 73.67111816 22.60974609 74.34223633 21.89355469 75.03369141 C21.14235352 75.80245605 20.39115234 76.5712207 19.6171875 77.36328125 C18.84246094 78.16701172 18.06773438 78.97074219 17.26953125 79.79882812 C16.47933594 80.62833984 15.68914063 81.45785156 14.875 82.3125 C14.47490723 82.73893799 14.07481445 83.16537598 13.66259766 83.60473633 C13.26476074 84.027146 12.86692383 84.44955566 12.45703125 84.88476562 C11.68488281 85.68205078 10.91273437 86.47933594 10.1171875 87.30078125 C9.42222168 88.03466064 8.72725586 88.76854004 8.01123047 89.5246582 C7.34752441 90.011521 6.68381836 90.49838379 6 91 C5.29560791 90.9479541 4.59121582 90.8959082 3.86547852 90.84228516 C3.24987061 90.56433105 2.6342627 90.28637695 2 90 C1.35160156 89.41347656 0.70320313 88.82695313 0.03515625 88.22265625 C-0.61582031 87.50980469 -1.26679687 86.79695313 -1.9375 86.0625 C-2.58589844 85.35222656 -3.23429687 84.64195313 -3.90234375 83.91015625 C-4.59457031 83.27980469 -5.28679688 82.64945313 -6 82 C-6.85078125 81.56429687 -7.7015625 81.12859375 -8.578125 80.6796875 C-9.37734375 80.45539063 -10.1765625 80.23109375 -11 80 C-11.928125 80.350625 -12.85625 80.70125 -13.8125 81.0625 C-14.534375 81.701875 -15.25625 82.34125 -16 83 C-16.13664062 83.76441406 -16.27328125 84.52882813 -16.4140625 85.31640625 C-16.27742188 86.20199219 -16.14078125 87.08757812 -16 88 C-15.07380859 89.20269531 -15.07380859 89.20269531 -14.12890625 90.4296875 C-13.72381836 90.82961914 -13.31873047 91.22955078 -12.90136719 91.64160156 C-12.23862793 92.25213379 -12.23862793 92.25213379 -11.5625 92.875 C-11.11165039 93.30264648 -10.66080078 93.73029297 -10.19628906 94.17089844 C-9.5055127 94.81720215 -9.5055127 94.81720215 -8.80078125 95.4765625 C-8.09816162 96.11126465 -8.09816162 96.11126465 -7.38134766 96.75878906 C-6.69758057 97.37318848 -6.69758057 97.37318848 -6 98 C-5.18917969 98.75023438 -4.37835938 99.50046875 -3.54296875 100.2734375 C-2.78628906 100.92570312 -2.02960937 101.57796875 -1.25 102.25 C-0.57453125 102.83265625 0.1009375 103.4153125 0.796875 104.015625 C1.52390625 104.34046875 2.2509375 104.6653125 3 105 C4.45019531 104.75056641 4.45019531 104.75056641 5.9296875 104.49609375 C6.94289063 104.00238281 7.95609375 103.50867188 9 103 C9.45568359 102.63890137 9.91136719 102.27780273 10.38085938 101.90576172 C10.81978516 101.48955566 11.25871094 101.07334961 11.7109375 100.64453125 C12.36485474 99.9635437 12.36485474 99.9635437 13.03198242 99.26879883 C13.69677612 98.54793091 13.69677612 98.54793091 14.375 97.8125 C15.08716675 97.06939575 15.08716675 97.06939575 15.8137207 96.3112793 C16.29156006 95.81668213 16.76939941 95.32208496 17.26171875 94.8125 C17.72755371 94.3278125 18.19338867 93.843125 18.67333984 93.34375 C19.1111377 92.9003125 19.54893555 92.456875 20 92 C20.72832031 91.34 21.45664063 90.68 22.20703125 90 C22.86058594 89.443125 23.51414063 88.88625 24.1875 88.3125 C24.81140625 87.77625 25.4353125 87.24 26.078125 86.6875 C27.02945313 85.8521875 27.02945313 85.8521875 28 85 C28.73734375 84.319375 29.4746875 83.63875 30.234375 82.9375 C30.96140625 82.23625 31.6884375 81.535 32.4375 80.8125 C33.09621094 80.17957031 33.75492188 79.54664063 34.43359375 78.89453125 C34.95050781 78.26933594 35.46742187 77.64414063 36 77 C36.27457031 76.30777344 36.54914063 75.61554688 36.83203125 74.90234375 C36.88746094 74.27457031 36.94289062 73.64679688 37 73 C36.4225 72.2575 35.845 71.515 35.25 70.75 C34.5075 70.1725 33.765 69.595 33 69 C32.01 69 31.02 69 30 69 Z " transform="translate(47,0)"/></svg>