<svg width="69.588px" height="70.48px" viewBox="0 0 69.588 70.48" version="1.1" xmlns="http://www.w3.org/2000/svg" xmlns:xlink="http://www.w3.org/1999/xlink">
    <g id="Page-1" stroke="none" stroke-width="1" fill="none" fill-rule="evenodd">
        <g id="随机点名" fill="#5ac56f" fill-rule="nonzero">
            <path d="M1.188,1.116 L1.188,32.976 L4.644,32.976 L4.644,4.428 L7.596,4.428 C7.092,7.092 6.372,10.116 5.436,13.428 C6.948,16.164 7.74,18.648 7.74,20.844 C7.74,21.42 7.668,21.852 7.596,22.068 C7.488,22.284 7.308,22.392 7.056,22.464 C6.444,22.464 5.652,22.392 4.716,22.284 L5.832,25.74 C7.92,25.74 9.36,25.272 10.224,24.372 C10.8,23.688 11.124,22.5 11.124,20.844 C10.98,18.612 10.224,15.948 8.82,12.888 C9.648,9.792 10.368,6.804 11.016,3.924 L11.016,1.116 L1.188,1.116 Z M13.932,1.944 L11.196,3.636 C12.384,5.796 13.356,7.74 14.076,9.504 L16.848,7.632 C16.164,6.012 15.192,4.104 13.932,1.944 Z M25.992,29.34 C24.732,29.34 23.472,29.304 22.212,29.268 C20.916,29.16 19.8,28.908 18.828,28.548 C17.928,28.08 17.172,27.504 16.596,26.784 L16.596,15.588 L18.324,17.784 C18.972,17.208 19.62,16.524 20.268,15.732 L20.268,28.188 L23.472,28.188 L23.472,22.284 L28.476,22.284 L28.476,24.048 C28.476,24.732 28.224,25.092 27.72,25.092 C27.036,25.092 26.316,25.02 25.56,24.912 L26.424,28.08 L28.764,28.08 C30.78,28.008 31.788,27.036 31.788,25.128 L31.788,9.18 L23.868,9.18 C24.192,8.316 24.516,7.416 24.804,6.48 L33.012,6.48 L33.012,3.096 L25.704,3.096 C25.884,2.268 26.064,1.404 26.28,0.504 L22.644,0.036 C22.5,1.08 22.356,2.088 22.176,3.096 L17.352,3.096 L17.352,6.48 L21.312,6.48 C20.232,9.936 18.684,12.816 16.596,15.156 L16.596,11.736 L10.62,11.736 L10.62,15.048 L13.14,15.048 L13.14,26.1 C11.916,26.784 10.512,28.26 8.856,30.492 L10.98,33.336 C12.852,30.6 14.112,29.232 14.688,29.232 C15.012,29.232 15.408,29.448 15.84,29.952 C16.596,30.924 17.532,31.608 18.684,32.04 C19.872,32.436 21.204,32.652 22.68,32.688 C23.688,32.724 24.696,32.76 25.704,32.76 L32.4,32.76 L33.336,29.232 C31.032,29.304 28.584,29.34 25.992,29.34 Z M23.472,17.28 L28.476,17.28 L28.476,19.332 L23.472,19.332 L23.472,17.28 Z M28.476,14.328 L23.472,14.328 L23.472,12.06 L28.476,12.06 L28.476,14.328 Z" id="Shape"></path>
            <path d="M36.612,6.624 L36.612,10.26 L41.364,10.26 C40.176,14.292 38.34,17.856 35.82,20.952 L37.44,25.056 C39.06,22.536 40.428,19.8 41.544,16.848 L41.544,33.156 L45.288,33.156 L45.288,15.444 C46.044,16.704 46.908,18.252 47.916,20.052 L50.112,16.74 C48.492,14.868 46.872,13.14 45.288,11.592 L45.288,10.26 L49.32,10.26 L49.32,6.624 L45.288,6.624 L45.288,0 L41.544,0 L41.544,6.624 L36.612,6.624 Z M47.088,30.852 L50.184,33.588 C51.876,30.924 53.028,28.116 53.64,25.236 C54.288,22.356 54.612,18.9 54.612,14.832 L54.612,4.644 L59.724,4.644 L59.724,28.872 C59.724,31.248 61.092,32.472 63.864,32.472 L65.484,32.472 C66.744,32.472 67.68,32.22 68.256,31.752 C68.832,31.176 69.192,30.24 69.336,28.872 C69.48,27.504 69.588,25.416 69.588,22.68 L66.132,21.6 C66.132,25.416 66.06,27.612 65.916,28.116 C65.844,28.368 65.772,28.584 65.628,28.728 C65.484,28.872 65.268,28.944 64.98,28.944 L63.9,28.944 C63.648,28.944 63.54,28.764 63.54,28.44 L63.54,1.116 L50.868,1.116 L50.868,14.832 C50.868,18.9 50.616,21.96 50.148,24.012 C49.572,26.388 48.528,28.692 47.088,30.852 Z" id="Shape"></path>
            <path d="M14.256,37.252 L14.256,47.332 L4.536,47.332 L4.536,59.788 L29.376,59.788 L29.376,47.332 L17.964,47.332 L17.964,43.804 L31.572,43.804 L31.572,40.312 L17.964,40.312 L17.964,37.252 L14.256,37.252 Z M25.632,56.332 L8.28,56.332 L8.28,50.824 L25.632,50.824 L25.632,56.332 Z M4.464,60.832 C3.204,63.64 1.728,66.016 0,68.032 L3.096,70.3 C4.824,68.068 6.3,65.404 7.596,62.344 L4.464,60.832 Z M13.356,62.02 L9.828,62.74 C10.476,64.936 11.052,67.456 11.484,70.336 L15.264,69.436 C14.688,66.772 14.076,64.324 13.356,62.02 Z M20.808,61.516 L17.28,62.236 C18.288,64.54 19.116,67.24 19.764,70.264 L23.508,69.364 C22.716,66.556 21.816,63.928 20.808,61.516 Z M27.972,60.652 L24.912,62.596 C27.036,65.476 28.728,68.104 29.988,70.48 L33.156,68.32 C31.932,66.16 30.204,63.604 27.972,60.652 Z" id="Shape"></path>
            <path d="M48.06,68.356 L62.928,68.356 L62.928,70.228 L66.744,70.228 L66.744,54.352 L53.388,54.352 C59.22,51.364 63.288,47.656 65.52,43.192 L65.52,39.88 L52.272,39.88 C52.848,39.052 53.352,38.224 53.784,37.36 L49.644,36.856 C47.52,40.528 43.416,43.66 37.368,46.18 L39.888,49.456 C43.632,47.656 46.692,45.64 49.14,43.408 L61.236,43.408 C59.724,45.856 57.384,48.052 54.252,49.96 C52.776,48.736 50.832,47.368 48.456,45.856 L45.18,47.872 C47.52,49.204 49.464,50.464 50.976,51.688 C47.016,53.488 42.084,54.928 36.144,56.008 L38.088,59.608 C40.248,59.104 42.336,58.528 44.28,57.952 L44.28,70.228 L48.06,70.228 L48.06,68.356 Z M62.928,64.72 L48.06,64.72 L48.06,57.844 L62.928,57.844 L62.928,64.72 Z" id="Shape"></path>
        </g>
    </g>
</svg>