<svg t="1703392004215" class="icon" viewBox="0 0 1024 1024" version="1.1"
  xmlns="http://www.w3.org/2000/svg" p-id="1718" width="200" height="200">
  <path
    d="M368.783217 694.601399l107.412587 0-203.572428 265.974026-69.562438-49.102897zM837.306693 0q23.528472 0 40.407592 16.879121t16.879121 40.407592l0 450.10989-765.186813 0 0-450.10989q0-23.528472 16.879121-40.407592t40.407592-16.879121l650.613387 0zM129.406593 571.844156l765.186813 0 0 6.137862q0 23.528472-16.879121 40.407592t-40.407592 16.879121l-650.613387 0q-23.528472 0-40.407592-16.879121t-16.879121-40.407592l0-6.137862zM618.38961 694.601399l166.745255 208.687313-68.539461 50.125874-207.664336-258.813187 109.458541 0z"
    p-id="1719" fill="#77c378"></path>
</svg>