<svg width="25" height="20" viewBox="0 0 25 20" fill="none" xmlns="http://www.w3.org/2000/svg">
<g clip-path="url(#clip0_36_9)">
<path fill-rule="evenodd" clip-rule="evenodd" d="M21.8619 19.1007C23.6019 19.0577 24.9999 17.6337 24.9999 15.8827V6.14667C24.9999 5.11867 24.3319 4.26967 23.4339 3.96667C23.4369 4.01067 23.4379 4.05567 23.4379 4.10067V16.3317C23.4379 17.5097 22.8049 18.5397 21.8619 19.1007Z" fill="#00C864" fill-opacity="0.5"/>
<path fill-rule="evenodd" clip-rule="evenodd" d="M19.6281 19.5517H19.9961C21.7741 19.5517 23.2151 18.1107 23.2151 16.3327V4.1017C23.2151 2.8927 22.2921 1.9317 21.1541 1.8147C21.1881 1.9707 21.2061 2.1327 21.2061 2.3007V16.7817C21.2061 17.9597 20.5721 18.9907 19.6281 19.5517Z" fill="#00C864" fill-opacity="0.7"/>
<path fill-rule="evenodd" clip-rule="evenodd" d="M0 5.1037C0 3.9837 0.807 3.0267 1.911 2.8377L18.295 0.0337065C19.7 -0.207294 20.982 0.874706 20.982 2.2997V16.7807C20.982 18.5587 19.541 19.9997 17.764 19.9997H2.299C1.029 19.9997 0 18.9707 0 17.7007V5.1037Z" fill="#00C864"/>
<path d="M5.32453 14.6238L5.21251 13.7501C5.17977 13.4948 4.95855 13.3061 4.70126 13.314L4.29735 13.3263C4.05138 13.3339 3.84747 13.5193 3.8166 13.7634L3.70741 14.6271C3.67585 14.8767 3.46375 15.064 3.21217 15.0644L3.15395 15.0645C2.92107 15.0649 2.73198 14.8764 2.7316 14.6435C2.73156 14.6201 2.73348 14.5967 2.73733 14.5735C3.00328 12.9774 3.20703 11.8126 3.34858 11.079C3.49197 10.3301 3.69479 9.28214 3.95702 7.93507C3.99858 7.72538 4.16866 7.56526 4.38052 7.53671L4.60862 7.50681C4.86681 7.47492 5.10631 7.64634 5.15939 7.90102C5.41856 9.18916 5.6153 10.2055 5.75039 10.95C5.88716 11.7093 6.08071 12.9097 6.33105 14.551C6.36789 14.7925 6.20193 15.0181 5.9604 15.055C5.93856 15.0583 5.91651 15.06 5.89442 15.06L5.82128 15.0602C5.56941 15.0606 5.35656 14.8736 5.32453 14.6238ZM4.38444 9.77869C4.38297 9.7873 4.38154 9.7957 4.38015 9.80386C4.33603 10.063 4.29451 10.3174 4.25558 10.5673C4.21666 10.8168 4.18033 11.0679 4.14659 11.3205C4.12946 11.4486 4.10655 11.63 4.07788 11.8647C4.06469 11.9744 4.14286 12.074 4.25252 12.0872C4.26444 12.0886 4.27647 12.0889 4.28845 12.0882L4.78154 12.0628C4.89174 12.0552 4.97487 11.9596 4.96724 11.8495C4.96697 11.8456 4.96659 11.8418 4.9661 11.8379C4.93688 11.5924 4.91418 11.4039 4.89788 11.2722C4.86674 11.0209 4.83171 10.7721 4.79278 10.526C4.75385 10.2802 4.71233 10.0309 4.66821 9.77812C4.65452 9.69978 4.57991 9.64737 4.50157 9.66106C4.44157 9.67155 4.39469 9.71865 4.38444 9.77869ZM6.89874 14.5576V14.2551C6.89874 13.9833 7.11586 13.7613 7.38758 13.7552L7.46093 13.7536C7.73265 13.7475 7.94977 13.5255 7.94977 13.2537V8.92477C7.94977 8.66233 7.73702 8.44958 7.47458 8.44958C7.45777 8.44958 7.44097 8.45047 7.42426 8.45225C7.16329 8.48004 6.9292 8.29102 6.90141 8.03005C6.89963 8.01334 6.89874 7.99654 6.89874 7.97973V7.65635C6.89874 7.4046 7.08591 7.19211 7.33565 7.16035L9.39532 6.89837C9.66926 6.86352 9.91957 7.05735 9.95442 7.33128C9.95708 7.35221 9.95841 7.37328 9.95841 7.39437V7.73278C9.95841 7.98843 9.76557 8.20289 9.51137 8.22997L9.36221 8.24585C9.10801 8.27293 8.91517 8.4874 8.91517 8.74304V13.2098C8.91517 13.486 9.13902 13.7098 9.41517 13.7098C9.41888 13.7098 9.4226 13.7098 9.42632 13.7097L9.44726 13.7092C9.72333 13.7031 9.95213 13.9219 9.95829 14.198C9.95837 14.2017 9.95841 14.2054 9.95841 14.2091V14.5543C9.95841 14.8301 9.73505 15.0538 9.45923 15.0543L7.39955 15.0576C7.12341 15.058 6.89919 14.8337 6.89874 14.5576C6.89874 14.5579 6.89874 14.5573 6.89874 14.5576ZM12.7235 9.85847C12.7396 9.96937 12.7547 10.0686 12.769 10.1561C12.8105 10.412 12.8559 10.6956 12.9052 11.0072C12.9545 11.3193 13.009 11.6547 13.0687 12.0136C13.0765 12.0604 13.1207 12.092 13.1675 12.0842C13.2091 12.0773 13.2396 12.0412 13.2393 11.999C13.2384 11.8371 13.2373 11.6929 13.2361 11.5663C13.2309 11.0131 13.2257 10.4483 13.2205 9.87194C13.2153 9.29569 13.2101 8.71256 13.2049 8.12255C13.2022 7.81145 13.2 7.39025 13.1984 6.85896C13.1962 6.6048 13.3851 6.38949 13.6374 6.35852L13.6409 6.35835C13.8522 6.33148 14.0453 6.48097 14.0721 6.69224C14.0745 6.7111 14.0755 6.73011 14.0751 6.74912C14.0591 7.50252 14.0467 8.09191 14.038 8.5173C14.0224 9.27628 14.0042 10.0304 13.9835 10.7796C13.9627 11.5283 13.9381 12.2651 13.9095 12.9896C13.8934 13.3979 13.8677 13.9515 13.8325 14.6504C13.8212 14.8728 13.6378 15.0475 13.4151 15.0478C13.1848 15.0482 12.987 14.8843 12.9446 14.6579C12.8286 14.0382 12.7389 13.5434 12.6755 13.1735C12.5613 12.5089 12.4472 11.8765 12.333 11.2761C12.2188 11.86 12.0994 12.4926 11.9748 13.1734C11.906 13.5484 11.8157 14.0429 11.7039 14.6569C11.6624 14.885 11.4637 15.0507 11.2319 15.0507C11.0072 15.0507 10.8216 14.8751 10.8093 14.6507C10.7733 13.9924 10.7465 13.4696 10.7292 13.0823C10.698 12.3888 10.6708 11.6869 10.6474 10.9763C10.6241 10.2662 10.6046 9.55186 10.589 8.83307C10.5804 8.43602 10.57 7.8913 10.5579 7.1989C10.5534 6.94431 10.7413 6.72717 10.9939 6.69504C11.2077 6.66784 11.4031 6.81914 11.4303 7.03298C11.4325 7.05054 11.4336 7.06823 11.4334 7.08593C11.4286 7.5958 11.4248 7.9999 11.4221 8.29822C11.4169 8.86937 11.4117 9.43817 11.4065 10.0046C11.4013 10.571 11.3961 11.1237 11.3909 11.6627C11.3894 11.8169 11.3881 11.998 11.387 12.2059C11.3867 12.2492 11.4216 12.2846 11.465 12.2848C11.5033 12.285 11.5362 12.2575 11.5427 12.2196C11.6024 11.8719 11.6595 11.5282 11.714 11.1887C11.7685 10.8485 11.8191 10.5355 11.8658 10.2496C11.8823 10.1487 11.9002 10.0379 11.9196 9.91715C11.9522 9.71351 12.1196 9.55844 12.3252 9.54143C12.5209 9.52523 12.6954 9.66413 12.7235 9.85847ZM17.9151 12.2534C17.9151 12.8098 17.8658 13.2756 17.7672 13.65C17.6686 14.0234 17.5349 14.322 17.3663 14.5459C17.1976 14.7687 16.9977 14.9267 16.7668 15.0204C16.5358 15.1135 16.288 15.1598 16.0233 15.1598C15.8105 15.1598 15.5899 15.1381 15.3615 15.095C15.2776 15.0793 15.1715 15.0529 15.043 15.0157C14.8316 14.9535 14.6859 14.76 14.6842 14.5396L14.6842 6.68049C14.6847 6.47528 14.8106 6.29124 15.0016 6.21632C15.1111 6.17278 15.2053 6.13893 15.2836 6.11348C15.5016 6.0424 15.717 5.99307 15.9298 5.9657C16.2932 5.91897 16.589 5.95166 16.8174 6.06444C17.0458 6.17811 17.2248 6.34297 17.3546 6.55897C17.4843 6.7758 17.5726 7.02528 17.6193 7.30708C17.666 7.58924 17.6893 7.87409 17.6893 8.16136C17.6893 8.59721 17.6336 8.98824 17.522 9.33368C17.4104 9.67809 17.2611 9.95519 17.0743 10.165C17.4013 10.3694 17.6232 10.6617 17.74 11.0411C17.8567 11.4217 17.9151 11.8261 17.9151 12.2534ZM15.6418 11.3191V13.5566C15.7093 13.5743 15.7832 13.5872 15.8637 13.595C15.9441 13.6029 16.0233 13.6061 16.1011 13.6044C16.2101 13.602 16.3165 13.5827 16.4203 13.5463C16.5241 13.5099 16.6163 13.4443 16.6967 13.3496C16.7772 13.2547 16.8433 13.1207 16.8952 12.9478C16.9471 12.7746 16.9731 12.5555 16.9731 12.2907C16.9731 11.8493 16.8991 11.5366 16.7512 11.3533C16.6033 11.1708 16.4048 11.0869 16.1556 11.101L15.8305 11.1194C15.7246 11.1254 15.6418 11.213 15.6418 11.3191ZM16.0155 9.62801C16.2594 9.60915 16.4437 9.49511 16.5682 9.28535C16.6928 9.0749 16.7551 8.79338 16.7551 8.44132C16.7551 8.22618 16.7369 8.05438 16.7006 7.92603C16.6643 7.79781 16.615 7.70035 16.5527 7.63365C16.4904 7.56707 16.4177 7.52606 16.3347 7.51056C16.2516 7.49512 16.166 7.49214 16.0778 7.50157C16.0051 7.50934 15.9298 7.52222 15.852 7.54019C15.8317 7.54487 15.8087 7.55106 15.7828 7.55877C15.7003 7.58423 15.6434 7.65979 15.6418 7.74615L15.6418 9.65689L16.0155 9.62801Z" fill="white"/>
</g>
<defs>
<clipPath id="clip0_36_9">
<rect width="24.9999" height="19.9997" fill="white"/>
</clipPath>
</defs>
</svg>
